<svg width="135" height="40" viewBox="0 0 135 40" fill="none" xmlns="http://www.w3.org/2000/svg">
<g clip-path="url(#clip0_1945_1862)">
<path d="M130 40H5C2.25 40 0 37.75 0 35V5C0 2.25 2.25 0 5 0H130C132.75 0 135 2.25 135 5V35C135 37.75 132.75 40 130 40Z" fill="black"/>
<path d="M130 0H5C2.25 0 0 2.25 0 5V35C0 37.75 2.25 40 5 40H130C132.75 40 135 37.75 135 35V5C135 2.25 132.75 0 130 0ZM130 0.799999C132.316 0.799999 134.2 2.6844 134.2 5V35C134.2 37.316 132.316 39.2004 130 39.2004H5C2.6844 39.2004 0.8 37.316 0.8 35V5C0.8 2.6844 2.6844 0.799999 5 0.799999H130Z" fill="#A6A6A6"/>
<path d="M43.8299 9.63346C43.8416 10.5827 43.6514 11.3483 43.2607 11.9296H46.2939V7.40376H43.8299V9.63346ZM42.4471 13.9401H41.71V11.9296H42.2967C42.8162 11.4819 43.0701 10.7171 43.0596 9.63346V6.66666H47.0654V11.9296H47.7354V13.9401H46.9979V12.6667H42.4471V13.9401Z" fill="white"/>
<path d="M43.8299 9.63344L43.7299 9.63464L43.7307 9.71544C43.7303 10.6135 43.5428 11.3307 43.1775 11.8736L43.0729 12.0295H46.3939V7.30374H43.7299V9.63424V9.63464L43.8299 9.63344H43.9299V7.50374H46.1939V11.8295H43.2607V11.9295L43.3436 11.985C43.7369 11.3998 43.9307 10.6404 43.9307 9.71544L43.9299 9.63224L43.8299 9.63344H43.9299H43.8299ZM42.4471 13.94V13.84H41.81V12.0295H42.2967H42.3338L42.3619 12.0053C42.9025 11.5389 43.16 10.7619 43.16 9.69904L43.1596 9.63264V9.63344V6.76664H46.9654V12.0295H47.6354V13.84H47.0979V12.6666V12.5666H42.3471V13.94H42.4471V13.84V13.94H42.5471V12.7666H46.8979V13.94V14.04H47.7354H47.8354V11.8295H47.1654V6.56664H42.9596V9.63384V9.63424L42.96 9.69904C42.9596 10.7338 42.7088 11.4436 42.2314 11.8533L42.2967 11.9295V11.8295H41.71H41.61V14.04H42.4471H42.5471V13.94H42.4471Z" fill="white"/>
<path d="M49.9178 11.389C50.3623 11.8386 50.9053 12.0632 51.5479 12.0632C52.1904 12.0632 52.7342 11.8386 53.1775 11.389C53.6221 10.9394 53.8447 10.3647 53.8447 9.66666C53.8447 8.96866 53.6221 8.39396 53.1775 7.94436C52.7342 7.49476 52.1904 7.27016 51.5479 7.27016C50.9053 7.27016 50.3623 7.49476 49.9178 7.94436C49.4744 8.39396 49.2518 8.96866 49.2518 9.66666C49.2518 10.3647 49.4744 10.9394 49.9178 11.389ZM53.7479 11.8913C53.158 12.4979 52.4248 12.8007 51.5479 12.8007C50.6709 12.8007 49.9373 12.4979 49.3486 11.8913C48.7588 11.2854 48.4647 10.5437 48.4647 9.66666C48.4647 8.78966 48.7588 8.04786 49.3486 7.44206C49.9373 6.83536 50.6709 6.53226 51.5479 6.53226C52.4197 6.53226 53.1514 6.83696 53.7439 7.44596C54.3357 8.05496 54.6318 8.79516 54.6318 9.66666C54.6318 10.5437 54.3369 11.2854 53.7479 11.8913Z" fill="white"/>
<path d="M49.9178 11.3889L49.8467 11.4592C50.3072 11.9268 50.8818 12.1643 51.5479 12.1631C52.2135 12.1643 52.7893 11.9268 53.2486 11.4592C53.7123 10.9912 53.9455 10.3857 53.9447 9.66663C53.9455 8.94753 53.7123 8.34203 53.2486 7.87403C52.7893 7.40643 52.2135 7.16893 51.5479 7.17013C50.8818 7.16893 50.3072 7.40643 49.8467 7.87403C49.3842 8.34203 49.151 8.94753 49.1518 9.66663C49.151 10.3857 49.3842 10.9912 49.8467 11.4592L49.9178 11.3889L49.9893 11.3186C49.565 10.8869 49.3529 10.3439 49.3518 9.66663C49.3529 8.98933 49.565 8.44633 49.9893 8.01463H49.9889C50.417 7.58303 50.9283 7.37133 51.5479 7.37013C52.167 7.37133 52.6795 7.58303 53.1064 8.01463L53.108 8.01623L53.1064 8.01463C53.5318 8.44633 53.7436 8.98933 53.7447 9.66663C53.7436 10.3439 53.5318 10.8869 53.1064 11.3186C52.6795 11.7502 52.167 11.9619 51.5479 11.9631C50.9283 11.9619 50.417 11.7502 49.9889 11.3186L49.9178 11.3889ZM53.7479 11.8912L53.6764 11.8217C53.1033 12.4092 52.4018 12.6994 51.5479 12.7006C50.6936 12.6994 49.9924 12.4092 49.4201 11.8217C48.8482 11.2322 48.5658 10.5213 48.5647 9.66663C48.5658 8.81193 48.8482 8.10103 49.4201 7.51153C49.9924 6.92403 50.6936 6.63343 51.5479 6.63223C52.3967 6.63343 53.0963 6.92523 53.6725 7.51583C54.2467 8.10803 54.5307 8.81783 54.5318 9.66663C54.5307 10.5213 54.2475 11.2322 53.6764 11.8217L53.7479 11.8912L53.8197 11.9607C54.426 11.3381 54.7326 10.5658 54.7318 9.66663C54.7326 8.77253 54.4252 8.00183 53.8158 7.37643C53.2064 6.74863 52.4432 6.43113 51.5479 6.43223C50.6479 6.43113 49.8822 6.74713 49.2768 7.37253V7.37213C48.6693 7.99513 48.3639 8.76743 48.3647 9.66663C48.3639 10.5658 48.6693 11.3381 49.2768 11.9611V11.9607C49.8822 12.5861 50.6479 12.9014 51.5479 12.9006C52.4475 12.9014 53.2131 12.5861 53.8197 11.9607L53.7479 11.8912Z" fill="white"/>
<path d="M58.5127 12.8007C57.6299 12.8007 56.8897 12.5019 56.292 11.9038C55.6932 11.3062 55.3955 10.5604 55.3955 9.66666C55.3955 8.77286 55.6932 8.02716 56.292 7.42956C56.8897 6.83146 57.6299 6.53226 58.5127 6.53226C59.417 6.53226 60.1522 6.85926 60.7166 7.51276L60.1795 8.03266C59.7725 7.52406 59.2158 7.27016 58.5127 7.27016C57.8584 7.27016 57.3064 7.49086 56.8572 7.93226C56.4072 8.37366 56.1826 8.95186 56.1826 9.66666C56.1826 10.3815 56.4072 10.9601 56.8572 11.4011C57.3064 11.8425 57.8584 12.0632 58.5127 12.0632C59.2334 12.0632 59.8475 11.7729 60.3564 11.1921L60.8924 11.728C60.6182 12.0577 60.2752 12.319 59.8611 12.5112C59.4482 12.7042 58.9979 12.8007 58.5127 12.8007Z" fill="white"/>
<path d="M58.5127 12.8006V12.7006C57.6522 12.6994 56.9432 12.4123 56.3627 11.833C55.7826 11.2529 55.4963 10.5381 55.4955 9.66663C55.4963 8.79513 55.7826 8.08033 56.3627 7.50023C56.9432 6.92053 57.6522 6.63343 58.5127 6.63223C59.3932 6.63383 60.0932 6.94553 60.6408 7.57793L60.7166 7.51273L60.6471 7.44083L60.11 7.96113L60.1795 8.03263L60.2576 7.97013C59.8334 7.43813 59.2393 7.16863 58.5127 7.17013C57.8357 7.16933 57.2533 7.40183 56.7873 7.86073C56.3166 8.32133 56.0814 8.93143 56.0826 9.66663C56.0814 10.4018 56.3166 11.0127 56.7873 11.4725C57.2533 11.9314 57.8357 12.1639 58.5127 12.1631C59.2607 12.1643 59.9088 11.8572 60.4314 11.258L60.3564 11.192L60.2857 11.2627L60.8217 11.7986L60.8924 11.7279L60.8154 11.6643C60.5506 11.9822 60.2209 12.2338 59.8189 12.4205C59.4193 12.6072 58.985 12.7002 58.5127 12.7006V12.8006V12.9006C59.0111 12.9006 59.4768 12.8014 59.9033 12.6018C60.3299 12.4041 60.6854 12.1334 60.9693 11.792L61.0275 11.7221L60.4272 11.1213L60.3514 11.0455L60.2811 11.126C59.7865 11.6889 59.2061 11.9619 58.5127 11.9631C57.8807 11.9619 57.36 11.7533 56.9275 11.3295C56.4978 10.9076 56.2834 10.3611 56.2826 9.66663C56.2834 8.97213 56.4975 8.42643 56.9272 8.00373C57.3597 7.57993 57.8807 7.37133 58.5127 7.37013C59.192 7.37173 59.7111 7.61003 60.1014 8.09513L60.1701 8.18113L60.7861 7.58463L60.8541 7.51894L60.7924 7.44753C60.2115 6.77253 59.4408 6.43113 58.5127 6.43223C57.6072 6.43143 56.8357 6.74283 56.2213 7.35883C55.6037 7.97363 55.2943 8.75103 55.2955 9.66663C55.2943 10.5822 55.6037 11.3596 56.2213 11.9748C56.8357 12.5904 57.6072 12.9014 58.5127 12.9006V12.8006Z" fill="white"/>
<path d="M64.0107 12.6666H63.2393V7.40373H61.5635V6.66663H65.6865V7.40373H64.0107V12.6666Z" fill="white"/>
<path d="M64.0107 12.6666V12.5666H63.3393V7.3037H61.6635V6.7666H65.5865V7.3037H63.9107V12.6666H64.0107V12.5666V12.6666H64.1107V7.5037H65.7865V6.6666V6.5666H61.4635V7.4037V7.5037H63.1393V12.7666H64.0107H64.1107V12.6666H64.0107Z" fill="white"/>
<path d="M70.9799 6.66666L68.7096 11.728C68.3959 12.4433 67.9307 12.8007 67.3104 12.8007C67.126 12.8007 66.9275 12.7562 66.7147 12.6667L66.9158 11.9542C67.0447 12.0272 67.1787 12.0632 67.3182 12.0632C67.4971 12.0632 67.6357 12.0284 67.7334 11.9589C67.8311 11.889 67.9217 11.7612 68.0057 11.5772L68.2236 11.0991L66.2041 6.66666H67.1092L68.5924 10.1108H68.6256L70.0744 6.66666H70.9799Z" fill="white"/>
<path d="M70.9799 6.66662L70.8885 6.62562L68.6182 11.6873L68.6178 11.6881C68.3092 12.3814 67.8877 12.6971 67.3104 12.7006C67.142 12.7006 66.9568 12.66 66.7533 12.5744L66.7147 12.6666L66.8111 12.6939L67.0119 11.9814L66.9158 11.9541L66.867 12.0412C67.0092 12.1217 67.1611 12.1635 67.3182 12.1631C67.5092 12.1631 67.6693 12.1268 67.7916 12.04C67.9119 11.9529 68.0084 11.8111 68.0967 11.6189L68.3147 11.1408L68.3334 11.099L66.3596 6.76662H67.0436L68.5264 10.2107H68.6256H68.692L70.1408 6.76662H70.9799V6.66662L70.8885 6.62562L70.9799 6.66662V6.56662H70.0744H70.008L68.533 10.0721L68.6256 10.1107V10.0107H68.5924V10.1107L68.6842 10.0713L67.1752 6.56662H66.2041H66.0486L68.1135 11.099L67.9147 11.5357C67.8354 11.7111 67.7502 11.8244 67.6752 11.8771C67.6022 11.9299 67.4846 11.9635 67.3182 11.9631C67.1959 11.9631 67.0807 11.9322 66.965 11.867L66.8541 11.8045L66.6186 12.6393L66.5943 12.7244L66.676 12.7588C66.8982 12.8521 67.1096 12.9006 67.3104 12.9006C67.9732 12.9037 68.4826 12.5045 68.801 11.7682L68.8006 11.7689L71.1342 6.56662H70.9799V6.66662Z" fill="white"/>
<path d="M71.8529 12.6666V6.66663H76.1939V12.6666H75.4225V7.40373H72.6232V12.6666H71.8529Z" fill="white"/>
<path d="M71.8529 12.6666H71.9529V6.7666H76.0936V12.5666H75.5225V7.3037H72.5232V12.5666H71.8529V12.6666H71.9529H71.8529V12.7666H72.6232H72.7232V7.5037H75.3225V12.7666H76.1939H76.2939V6.5666H71.7529V12.7666H71.8529V12.6666Z" fill="white"/>
<path d="M77.5677 12.6666V6.66663H78.3385V9.23893H81.3385V6.66663H82.1099V12.6666H81.3385V9.95963H78.3385V12.6666H77.5677Z" fill="white"/>
<path d="M77.5678 12.6666H77.6678V6.7666H78.2385V9.3389H81.4385V6.7666H82.01V12.5666H81.4385V9.8596H78.2385V12.5666H77.5678V12.6666H77.6678H77.5678V12.7666H78.3385H78.4385V10.0596H81.2385V12.7666H82.11H82.21V6.5666H81.3385H81.2385V9.1389H78.4385V6.5666H77.5678H77.4678V12.7666H77.5678V12.6666Z" fill="white"/>
<path d="M84.5607 11.389C85.0053 11.8386 85.5482 12.0632 86.1908 12.0632C86.8334 12.0632 87.3772 11.8386 87.8205 11.389C88.265 10.9394 88.4877 10.3647 88.4877 9.66666C88.4877 8.96866 88.265 8.39396 87.8205 7.94436C87.3772 7.49476 86.8334 7.27016 86.1908 7.27016C85.5482 7.27016 85.0053 7.49476 84.5607 7.94436C84.1178 8.39396 83.8947 8.96866 83.8947 9.66666C83.8947 10.3647 84.1178 10.9394 84.5607 11.389ZM88.3908 11.8913C87.8014 12.4979 87.0678 12.8007 86.1908 12.8007C85.3139 12.8007 84.5807 12.4979 83.9916 11.8913C83.4018 11.2854 83.1076 10.5437 83.1076 9.66666C83.1076 8.78966 83.4018 8.04786 83.9916 7.44206C84.5807 6.83536 85.3139 6.53226 86.1908 6.53226C87.0631 6.53226 87.7943 6.83696 88.3869 7.44596C88.9787 8.05496 89.2748 8.79516 89.2748 9.66666C89.2748 10.5437 88.9799 11.2854 88.3908 11.8913Z" fill="white"/>
<path d="M84.5607 11.3889L84.4897 11.4592C84.9506 11.9268 85.5248 12.1643 86.1908 12.1631C86.8568 12.1643 87.4322 11.9268 87.892 11.4592C88.3553 10.9912 88.5885 10.3857 88.5877 9.66663C88.5885 8.94753 88.3553 8.34203 87.892 7.87403C87.4322 7.40643 86.8568 7.16893 86.1908 7.17013C85.5248 7.16893 84.9506 7.40643 84.4897 7.87403C84.0272 8.34203 83.7939 8.94753 83.7947 9.66663C83.7939 10.3857 84.0272 10.9912 84.4897 11.4592L84.5607 11.3889L84.6322 11.3186C84.208 10.8869 83.9959 10.3439 83.9947 9.66663C83.9959 8.98933 84.208 8.44633 84.6322 8.01463C85.06 7.58303 85.5717 7.37133 86.1908 7.37013C86.81 7.37133 87.3225 7.58303 87.7494 8.01463L87.7525 8.01783L87.7494 8.01463C88.1748 8.44633 88.3869 8.98933 88.3877 9.66663C88.3869 10.3439 88.1748 10.8869 87.7494 11.3186C87.3225 11.7502 86.81 11.9619 86.1908 11.9631C85.5717 11.9619 85.06 11.7502 84.6322 11.3186L84.5607 11.3889ZM88.3908 11.8912L88.3193 11.8217C87.7463 12.4092 87.0447 12.6994 86.1908 12.7006C85.3369 12.6994 84.6354 12.4092 84.0635 11.8217L84.0604 11.8186L84.0635 11.8217C83.4912 11.2322 83.2088 10.5213 83.2076 9.66663C83.2088 8.81193 83.4912 8.10103 84.0635 7.51153C84.6354 6.92403 85.3369 6.63343 86.1908 6.63223C87.0397 6.63343 87.7393 6.92523 88.3154 7.51583C88.8897 8.10803 89.174 8.81783 89.1748 9.66663C89.174 10.5213 88.8904 11.2322 88.3193 11.8217L88.3908 11.8912L88.4627 11.9607C89.0693 11.3381 89.3756 10.5658 89.3748 9.66663C89.3756 8.77253 89.0682 8.00183 88.4588 7.37643C87.8494 6.74863 87.0861 6.43113 86.1908 6.43223C85.2908 6.43113 84.5256 6.74713 83.9197 7.37253V7.37213C83.3123 7.99513 83.0068 8.76743 83.0076 9.66663C83.0068 10.5658 83.3123 11.3381 83.9197 11.9611V11.9607C84.5256 12.5861 85.2908 12.9014 86.1908 12.9006C87.0908 12.9014 87.8561 12.5861 88.4627 11.9607L88.3908 11.8912Z" fill="white"/>
<path d="M93.1974 11.9295H94.7484C95.0444 11.9295 95.2844 11.826 95.4694 11.6186C95.6534 11.4127 95.7454 11.1861 95.7454 10.94C95.7454 10.6943 95.6504 10.4697 95.4604 10.2658C95.2714 10.0619 95.0214 9.95963 94.7144 9.95963H93.1974V11.9295ZM93.1974 9.23893H94.5974C94.8884 9.23893 95.1214 9.14323 95.2974 8.94983C95.4734 8.75723 95.5614 8.54673 95.5614 8.31743C95.5614 8.08853 95.4764 7.87832 95.3054 7.68932C95.1354 7.49902 94.9104 7.40373 94.6314 7.40373H93.1974V9.23893ZM92.4274 12.6666V6.66663H94.5974C95.0664 6.66663 95.4734 6.82213 95.8164 7.13143C96.1604 7.44203 96.3324 7.83143 96.3324 8.30063C96.3324 8.58533 96.2584 8.83693 96.1094 9.05493C95.9624 9.27283 95.7654 9.43773 95.5194 9.54943V9.58263C95.8144 9.68303 96.0584 9.85643 96.2484 10.1021C96.4374 10.3482 96.5334 10.6334 96.5334 10.9572C96.5334 11.4486 96.3534 11.8564 95.9924 12.1803C95.6324 12.5045 95.2064 12.6666 94.7144 12.6666H92.4274Z" fill="white"/>
<path d="M106.936 30H108.802V17.4988H106.936V30ZM123.743 22.002L121.604 27.4219H121.54L119.32 22.002H117.31L120.639 29.5773L118.741 33.791H120.688L125.818 22.002H123.743ZM113.161 28.5801C112.549 28.5801 111.697 28.2746 111.697 27.5184C111.697 26.5535 112.759 26.1836 113.675 26.1836C114.496 26.1836 114.881 26.3605 115.38 26.602C115.235 27.7598 114.238 28.5801 113.161 28.5801ZM113.386 21.7285C112.035 21.7285 110.636 22.3238 110.057 23.6426L111.713 24.334C112.067 23.6426 112.726 23.4172 113.418 23.4172C114.383 23.4172 115.364 23.9965 115.38 25.0258V25.1543C115.042 24.9613 114.319 24.6719 113.434 24.6719C111.649 24.6719 109.831 25.6527 109.831 27.4863C109.831 29.159 111.295 30.2367 112.935 30.2367C114.19 30.2367 114.881 29.6738 115.316 29.0145H115.38V29.9793H117.181V25.1863C117.181 22.9672 115.525 21.7285 113.386 21.7285ZM101.854 23.5238H99.2V19.2387H101.854C103.249 19.2387 104.041 20.3937 104.041 21.3812C104.041 22.35 103.249 23.5238 101.854 23.5238ZM101.806 17.4988H97.335V30H99.2V25.2637H101.806C103.874 25.2637 105.907 23.7664 105.907 21.3812C105.907 18.9961 103.874 17.4988 101.806 17.4988ZM77.425 28.5824C76.1359 28.5824 75.0566 27.5031 75.0566 26.0207C75.0566 24.5227 76.1359 23.427 77.425 23.427C78.6977 23.427 79.6965 24.5227 79.6965 26.0207C79.6965 27.5031 78.6977 28.5824 77.425 28.5824ZM79.5676 22.702H79.5031C79.0844 22.2027 78.2785 21.7516 77.2637 21.7516C75.1371 21.7516 73.1879 23.6203 73.1879 26.0207C73.1879 28.4051 75.1371 30.2578 77.2637 30.2578C78.2785 30.2578 79.0844 29.8066 79.5031 29.2914H79.5676V29.9035C79.5676 31.5309 78.6977 32.4008 77.2961 32.4008C76.1523 32.4008 75.4434 31.5789 75.1531 30.8863L73.5262 31.5629C73.9934 32.6906 75.234 34.0762 77.2961 34.0762C79.4871 34.0762 81.3398 32.7871 81.3398 29.6457V22.0094H79.5676V22.702ZM82.6285 30H84.4973V17.4984H82.6285V30ZM87.2523 25.8758C87.2039 24.2324 88.525 23.3949 89.4754 23.3949C90.217 23.3949 90.845 23.7652 91.054 24.2973L87.2523 25.8758ZM93.052 24.4582C92.698 23.5074 91.618 21.7516 89.4109 21.7516C87.2199 21.7516 85.3996 23.4754 85.3996 26.0047C85.3996 28.3891 87.2039 30.2578 89.6203 30.2578C91.57 30.2578 92.698 29.0656 93.165 28.373L91.715 27.4062C91.232 28.1152 90.571 28.5824 89.6203 28.5824C88.6699 28.5824 87.9934 28.1473 87.5582 27.2937L93.245 24.9414L93.052 24.4582ZM47.7438 23.0566V24.8609H52.0613C51.9324 25.8758 51.5941 26.6168 51.0785 27.1324C50.4504 27.7609 49.4676 28.4535 47.7438 28.4535C45.0855 28.4535 43.0074 26.3109 43.0074 23.6527C43.0074 20.9945 45.0855 18.8516 47.7438 18.8516C49.1777 18.8516 50.2246 19.4156 50.998 20.1406L52.2707 18.868C51.1914 17.8367 49.7574 17.0473 47.7438 17.0473C44.1027 17.0473 41.0418 20.0117 41.0418 23.6527C41.0418 27.2937 44.1027 30.2578 47.7438 30.2578C49.7094 30.2578 51.1914 29.6137 52.3512 28.4051C53.5434 27.2129 53.9141 25.5375 53.9141 24.1844C53.9141 23.7652 53.882 23.3789 53.8172 23.0566H47.7438ZM58.8227 28.5824C57.5336 28.5824 56.4219 27.5191 56.4219 26.0047C56.4219 24.4742 57.5336 23.427 58.8227 23.427C60.1113 23.427 61.223 24.4742 61.223 26.0047C61.223 27.5191 60.1113 28.5824 58.8227 28.5824ZM58.8227 21.7516C56.4703 21.7516 54.5531 23.5398 54.5531 26.0047C54.5531 28.4535 56.4703 30.2578 58.8227 30.2578C61.1746 30.2578 63.0918 28.4535 63.0918 26.0047C63.0918 23.5398 61.1746 21.7516 58.8227 21.7516ZM68.1359 28.5824C66.8473 28.5824 65.7355 27.5191 65.7355 26.0047C65.7355 24.4742 66.8473 23.427 68.1359 23.427C69.4246 23.427 70.5363 24.4742 70.5363 26.0047C70.5363 27.5191 69.4246 28.5824 68.1359 28.5824ZM68.1359 21.7516C65.7836 21.7516 63.8668 23.5398 63.8668 26.0047C63.8668 28.4535 65.7836 30.2578 68.1359 30.2578C70.4879 30.2578 72.4051 28.4535 72.4051 26.0047C72.4051 23.5398 70.4879 21.7516 68.1359 21.7516Z" fill="white"/>
<path d="M10.5098 32.3895L10.4355 32.3184C10.1445 32.0105 9.97266 31.5324 9.97266 30.9133V31.059V8.94303C9.97266 8.94103 9.97266 8.93953 9.97266 8.93793C9.97266 8.93983 9.97266 8.94143 9.97266 8.94343V9.08953C9.97266 8.41913 10.173 7.91413 10.5086 7.61133L22.8984 20.0008L10.5098 32.3895ZM9.97266 8.93673C9.97266 8.88163 9.97416 8.82813 9.97696 8.77543C9.97416 8.82773 9.97266 8.88163 9.97266 8.93673ZM9.97696 8.77303C9.97696 8.77233 9.97696 8.77153 9.97726 8.77073C9.97696 8.77153 9.97696 8.77233 9.97696 8.77303ZM9.97726 8.76603C9.97726 8.76563 9.97726 8.76523 9.97726 8.76483C9.97726 8.76523 9.97726 8.76563 9.97726 8.76603Z" fill="url(#paint0_linear_1945_1862)"/>
<path d="M27.0277 24.2784L27.1219 24.2249L32.0148 21.4448C32.4813 21.1796 32.7922 20.8581 32.9473 20.5179C32.7926 20.8581 32.4816 21.18 32.0148 21.4452L27.1219 24.2253L27.0277 24.2784ZM27.0289 24.1319L22.8984 20.0007L27.0285 15.8702L32.0148 18.703C32.648 19.0628 33.0035 19.5265 33.0629 20.0003C33.0629 20.0007 33.0629 20.0015 33.0629 20.0022C33.0035 20.4749 32.648 20.939 32.0148 21.2987L27.0289 24.1319Z" fill="url(#paint1_linear_1945_1862)"/>
<path d="M11.393 32.8613C11.0469 32.8613 10.7449 32.7488 10.5094 32.5363L10.5098 32.5359C10.7453 32.7484 11.0477 32.8613 11.3938 32.8613C11.4238 32.8613 11.4543 32.8605 11.4852 32.859C11.4539 32.8605 11.423 32.8613 11.393 32.8613ZM11.3934 32.7148C11.0473 32.7152 10.7453 32.6023 10.5098 32.3898V32.3895L22.8984 20.0008L27.0289 24.132L12.5137 32.3793C12.1121 32.607 11.7316 32.7148 11.3934 32.7148ZM10.5063 32.5336C10.4844 32.5137 10.4629 32.4926 10.4418 32.4707L10.5063 32.5336Z" fill="url(#paint2_linear_1945_1862)"/>
<path d="M22.8984 20.0009L10.5086 7.61136C10.7441 7.39926 11.0457 7.28676 11.3914 7.28676C11.7305 7.28676 12.1113 7.39496 12.5137 7.62306L27.0285 15.8704L22.8984 20.0009ZM27.1219 15.7771L12.5137 7.47705C12.1113 7.24885 11.7305 7.14066 11.3914 7.14066C11.3898 7.14066 11.3887 7.14066 11.3871 7.14066C11.3891 7.14066 11.3906 7.14066 11.393 7.14066C11.7313 7.14066 12.1117 7.24846 12.5137 7.47666L27.1219 15.7771Z" fill="url(#paint3_linear_1945_1862)"/>
<path d="M11.4852 32.859C11.7996 32.841 12.1477 32.7328 12.5137 32.5254L27.0277 24.2785L12.5137 32.5254C12.148 32.7332 11.7996 32.841 11.4852 32.859ZM10.5094 32.5363L10.5063 32.5336C10.5074 32.5344 10.5086 32.5355 10.5094 32.5363ZM10.4418 32.4707L10.4355 32.4645V32.4641C10.4379 32.4664 10.4398 32.4687 10.4418 32.4707Z" fill="black"/>
<path d="M27.0277 24.2784L27.1219 24.2249L27.0277 24.2784Z" fill="url(#paint4_linear_1945_1862)"/>
<path d="M11.3938 32.8613C11.0477 32.8613 10.7453 32.7484 10.5098 32.5359L10.5094 32.5363C10.5086 32.5355 10.5074 32.5344 10.5063 32.5336L10.4418 32.4707C10.4398 32.4687 10.4379 32.4664 10.4355 32.4641L10.5098 32.3898C10.7453 32.6023 11.0473 32.7152 11.3934 32.7148C11.7316 32.7148 12.1121 32.607 12.5137 32.3793L27.0289 24.132L27.1219 24.225L27.0277 24.2785L12.5137 32.5254C12.1477 32.7328 11.7996 32.841 11.4852 32.859C11.4543 32.8605 11.4238 32.8613 11.3938 32.8613Z" fill="url(#paint5_linear_1945_1862)"/>
<path d="M10.4355 32.4645C10.1445 32.1566 9.97266 31.6785 9.97266 31.0594V31.059C9.97266 31.6785 10.1445 32.1562 10.4355 32.4641V32.4645Z" fill="black"/>
<path d="M10.4355 32.4641C10.1445 32.1562 9.97266 31.6785 9.97266 31.059V30.9133C9.97266 31.5324 10.1445 32.0105 10.4355 32.3184L10.5098 32.3895L10.4355 32.4641Z" fill="url(#paint6_linear_1945_1862)"/>
<path d="M10.4355 32.4641L10.5098 32.3895V32.3898L10.4355 32.4641Z" fill="url(#paint7_linear_1945_1862)"/>
<path d="M32.9473 20.5179C33.0242 20.3491 33.0629 20.1757 33.0629 20.0022C33.0629 20.0019 33.0629 20.0015 33.0629 20.0015C33.0629 20.1753 33.0242 20.3487 32.9473 20.5179Z" fill="black"/>
<path d="M27.1219 24.225L27.0289 24.132L32.0148 21.2988C32.648 20.9391 33.0035 20.475 33.0629 20.0023C33.0629 20.1758 33.0242 20.3492 32.9473 20.518C32.7922 20.8582 32.4813 21.1797 32.0148 21.4449L27.1219 24.225Z" fill="url(#paint8_linear_1945_1862)"/>
<path d="M33.0629 20.0009V20.0005C33.0625 19.4774 32.7129 18.9544 32.0148 18.5575L27.1219 15.7774H27.1215L27.1219 15.7771L32.0148 18.5571C32.7137 18.954 33.0637 19.4778 33.0629 20.0009Z" fill="#404040"/>
<path d="M33.0629 20.0004C33.0035 19.5266 32.648 19.0629 32.0148 18.7031L27.0285 15.8703L27.1215 15.7773H27.1219L32.0148 18.5574C32.7129 18.9543 33.0625 19.4773 33.0629 20.0004Z" fill="url(#paint9_linear_1945_1862)"/>
<path d="M9.97266 8.93787C9.97266 8.93747 9.97266 8.93707 9.97266 8.93667C9.97266 8.93707 9.97266 8.93747 9.97266 8.93787ZM9.97696 8.77537C9.97696 8.77457 9.97696 8.77377 9.97696 8.77297C9.97696 8.77377 9.97696 8.77457 9.97696 8.77537ZM9.97726 8.77067C9.97726 8.76907 9.97726 8.76757 9.97726 8.76597C9.97726 8.76757 9.97726 8.76907 9.97726 8.77067ZM9.97726 8.76477C10.0352 7.73747 10.5938 7.14407 11.384 7.14057C11.0414 7.14257 10.743 7.25507 10.5094 7.46557V7.46517L10.5066 7.46797C10.482 7.49017 10.4586 7.51367 10.4355 7.53787C10.173 7.81557 10.0074 8.23157 9.97726 8.76477Z" fill="#404040"/>
<path d="M9.97266 9.08948V8.94338C9.97266 8.94138 9.97266 8.93978 9.97266 8.93788C9.97266 8.93748 9.97266 8.93708 9.97266 8.93668C9.97266 8.88158 9.97416 8.82768 9.97696 8.77538C9.97696 8.77458 9.97696 8.77378 9.97696 8.77298C9.97696 8.77228 9.97696 8.77148 9.97726 8.77068C9.97726 8.76908 9.97726 8.76758 9.97726 8.76598C9.97726 8.76558 9.97726 8.76518 9.97726 8.76478C10.0074 8.23158 10.173 7.81558 10.4355 7.53788L10.5086 7.61128C10.173 7.91408 9.97266 8.41908 9.97266 9.08948ZM10.5066 7.46798L10.5094 7.46518C10.5086 7.46638 10.5074 7.46718 10.5066 7.46798Z" fill="url(#paint10_linear_1945_1862)"/>
<path d="M27.0285 15.8702L12.5137 7.62294C12.1113 7.39484 11.7305 7.28664 11.3914 7.28664C11.0457 7.28664 10.7441 7.39914 10.5086 7.61124L10.4355 7.53784C10.4586 7.51364 10.482 7.49014 10.5066 7.46794C10.5074 7.46714 10.5086 7.46634 10.5094 7.46554C10.743 7.25504 11.0414 7.14254 11.384 7.14054C11.3848 7.14054 11.3859 7.14054 11.3871 7.14054C11.3887 7.14054 11.3898 7.14054 11.3914 7.14054C11.7305 7.14054 12.1113 7.24874 12.5137 7.47694L27.1219 15.7769L27.1215 15.7772L27.0285 15.8702Z" fill="url(#paint11_linear_1945_1862)"/>
</g>
<defs>
<linearGradient id="paint0_linear_1945_1862" x1="21.7998" y1="8.70973" x2="5.01726" y2="25.4922" gradientUnits="userSpaceOnUse">
<stop stop-color="#00A0FF"/>
<stop offset="0.00657445" stop-color="#00A1FF"/>
<stop offset="0.2601" stop-color="#00BEFF"/>
<stop offset="0.5122" stop-color="#00D2FF"/>
<stop offset="0.7604" stop-color="#00DFFF"/>
<stop offset="1" stop-color="#00E3FF"/>
</linearGradient>
<linearGradient id="paint1_linear_1945_1862" x1="33.8344" y1="20.0013" x2="9.63744" y2="20.0013" gradientUnits="userSpaceOnUse">
<stop stop-color="#FFE000"/>
<stop offset="0.4087" stop-color="#FFBD00"/>
<stop offset="0.7754" stop-color="#FFA500"/>
<stop offset="1" stop-color="#FF9C00"/>
</linearGradient>
<linearGradient id="paint2_linear_1945_1862" x1="24.827" y1="22.2961" x2="2.06867" y2="45.0544" gradientUnits="userSpaceOnUse">
<stop stop-color="#FF3A44"/>
<stop offset="1" stop-color="#C31162"/>
</linearGradient>
<linearGradient id="paint3_linear_1945_1862" x1="7.29731" y1="0.176257" x2="17.4598" y2="10.3388" gradientUnits="userSpaceOnUse">
<stop stop-color="#32A071"/>
<stop offset="0.0685" stop-color="#2DA771"/>
<stop offset="0.4762" stop-color="#15CF74"/>
<stop offset="0.8009" stop-color="#06E775"/>
<stop offset="1" stop-color="#00F076"/>
</linearGradient>
<linearGradient id="paint4_linear_1945_1862" x1="33.8343" y1="20.0013" x2="9.63767" y2="20.0013" gradientUnits="userSpaceOnUse">
<stop stop-color="#CCB300"/>
<stop offset="0.4087" stop-color="#CC9700"/>
<stop offset="0.7754" stop-color="#CC8400"/>
<stop offset="1" stop-color="#CC7D00"/>
</linearGradient>
<linearGradient id="paint5_linear_1945_1862" x1="24.827" y1="22.2961" x2="2.06869" y2="45.0544" gradientUnits="userSpaceOnUse">
<stop stop-color="#CC2E36"/>
<stop offset="1" stop-color="#9C0E4E"/>
</linearGradient>
<linearGradient id="paint6_linear_1945_1862" x1="21.7998" y1="8.7097" x2="5.01725" y2="25.4922" gradientUnits="userSpaceOnUse">
<stop stop-color="#008DE0"/>
<stop offset="0.00657445" stop-color="#008DE0"/>
<stop offset="0.2601" stop-color="#00A7E0"/>
<stop offset="0.5122" stop-color="#00B8E0"/>
<stop offset="0.7604" stop-color="#00C4E0"/>
<stop offset="1" stop-color="#00C7E0"/>
</linearGradient>
<linearGradient id="paint7_linear_1945_1862" x1="24.8272" y1="22.2961" x2="2.06884" y2="45.0547" gradientUnits="userSpaceOnUse">
<stop stop-color="#E0333C"/>
<stop offset="1" stop-color="#AB0F56"/>
</linearGradient>
<linearGradient id="paint8_linear_1945_1862" x1="33.8344" y1="20.0014" x2="9.63737" y2="20.0014" gradientUnits="userSpaceOnUse">
<stop stop-color="#E0C500"/>
<stop offset="0.4087" stop-color="#E0A600"/>
<stop offset="0.7754" stop-color="#E09100"/>
<stop offset="1" stop-color="#E08900"/>
</linearGradient>
<linearGradient id="paint9_linear_1945_1862" x1="33.8344" y1="20.0014" x2="9.6374" y2="20.0014" gradientUnits="userSpaceOnUse">
<stop stop-color="#FFE840"/>
<stop offset="0.4087" stop-color="#FFCE40"/>
<stop offset="0.7754" stop-color="#FFBC40"/>
<stop offset="1" stop-color="#FFB540"/>
</linearGradient>
<linearGradient id="paint10_linear_1945_1862" x1="21.7997" y1="8.70968" x2="5.01725" y2="25.4921" gradientUnits="userSpaceOnUse">
<stop stop-color="#40B8FF"/>
<stop offset="0.00657445" stop-color="#40B9FF"/>
<stop offset="0.2601" stop-color="#40CEFF"/>
<stop offset="0.5122" stop-color="#40DDFF"/>
<stop offset="0.7604" stop-color="#40E7FF"/>
<stop offset="1" stop-color="#40EAFF"/>
</linearGradient>
<linearGradient id="paint11_linear_1945_1862" x1="7.29729" y1="0.176139" x2="17.4598" y2="10.3386" gradientUnits="userSpaceOnUse">
<stop stop-color="#65B895"/>
<stop offset="0.0685" stop-color="#62BD95"/>
<stop offset="0.4762" stop-color="#50DB97"/>
<stop offset="0.8009" stop-color="#44ED98"/>
<stop offset="1" stop-color="#40F498"/>
</linearGradient>
<clipPath id="clip0_1945_1862">
<rect width="135" height="40" fill="white"/>
</clipPath>
</defs>
</svg>
