<svg xmlns="http://www.w3.org/2000/svg"  viewBox="0 0 64 64" width="64px" height="64px" clip-rule="evenodd"><linearGradient id="A7EXgU1zfKmINu_ywwHp9a" x1="32" x2="32" y1="6" y2="58" gradientUnits="userSpaceOnUse" spreadMethod="reflect"><stop offset="0" stop-color="#1a6dff"/><stop offset="1" stop-color="#c822ff"/></linearGradient><path fill="url(#A7EXgU1zfKmINu_ywwHp9a)" d="M32,8c5.738,0,11.623,0.775,15.741,2.072C53,11.729,53,12.038,53,14.438 c0,15.191-4.615,27.001-14.108,36.103c-3.634,3.484-6.062,5.123-6.892,5.428c-0.83-0.306-3.258-1.944-6.892-5.428 C15.615,41.439,11,29.63,11,14.438c0-2.401,0-2.709,5.259-4.366C20.377,8.775,26.262,8,32,8 M32,6 c-6.207,0-12.232,0.87-16.342,2.165C10.149,9.901,9,10.658,9,14.438c0,19.874,7.814,30.922,14.724,37.547 C27.36,55.471,30.725,58,32,58s4.64-2.529,8.276-6.015C47.186,45.36,55,34.313,55,14.438c0-3.78-1.149-4.538-6.658-6.274 C44.232,6.87,38.207,6,32,6L32,6z"/><linearGradient id="A7EXgU1zfKmINu_ywwHp9b" x1="14.314" x2="14.314" y1="6.294" y2="57.542" gradientUnits="userSpaceOnUse" spreadMethod="reflect"><stop offset="0" stop-color="#1a6dff"/><stop offset="1" stop-color="#c822ff"/></linearGradient><path fill="url(#A7EXgU1zfKmINu_ywwHp9b)" d="M12.964,13.369l1.014-0.387v4.671l1.686-0.627v0.991l-2.7,0.968 C12.964,18.986,12.964,13.357,12.964,13.369z"/><linearGradient id="A7EXgU1zfKmINu_ywwHp9c" x1="17.654" x2="17.654" y1="6.359" y2="57.554" gradientUnits="userSpaceOnUse" spreadMethod="reflect"><stop offset="0" stop-color="#1a6dff"/><stop offset="1" stop-color="#c822ff"/></linearGradient><path fill="url(#A7EXgU1zfKmINu_ywwHp9c)" d="M18.097,11.797l-0.949,0.232l-1.35,5.927l1.065-0.316l0.295-1.466l0.97-0.274l0.327,1.392 l1.055-0.264L18.097,11.797z M17.317,15.224l0.316-1.772l0.337,1.624L17.317,15.224z"/><linearGradient id="A7EXgU1zfKmINu_ywwHp9d" x1="21.857" x2="21.857" y1="6.336" y2="57.443" gradientUnits="userSpaceOnUse" spreadMethod="reflect"><stop offset="0" stop-color="#1a6dff"/><stop offset="1" stop-color="#c822ff"/></linearGradient><path fill="url(#A7EXgU1zfKmINu_ywwHp9d)" d="M19.943,16.943l0.928-0.169l-0.063-3.079l1.012,3.354l1.034-3.301l-0.074,2.721l1.002-0.105 v-5.589L22.769,10.9l-0.907,3.354l-0.939-3.069l-0.991,0.221C19.932,11.407,19.932,16.954,19.943,16.943z"/><linearGradient id="A7EXgU1zfKmINu_ywwHp9e" x1="26.165" x2="26.165" y1="6.311" y2="57.501" gradientUnits="userSpaceOnUse" spreadMethod="reflect"><stop offset="0" stop-color="#1a6dff"/><stop offset="1" stop-color="#c822ff"/></linearGradient><path fill="url(#A7EXgU1zfKmINu_ywwHp9e)" d="M27.135,13.105c0.264-0.2,0.527-0.432,0.527-1.192c0-0.759-0.569-1.392-1.382-1.35 c-0.685,0.036-1.698,0.137-1.698,0.137v5.547c0,0,1.614-0.127,1.803-0.148c0.19-0.021,1.36-0.253,1.36-1.846 C27.747,14.254,27.758,13.389,27.135,13.105z M25.581,11.549c0,0,0.397-0.018,0.479-0.023c0.082-0.005,0.593-0.009,0.593,0.46 c0,0.47-0.315,0.716-0.542,0.738c-0.228,0.023-0.533,0.018-0.533,0.018L25.581,11.549z M26.218,15.108 c-0.232,0.042-0.622,0.051-0.622,0.051v-1.422c0,0,0.485-0.032,0.58-0.032c0.095,0,0.569,0.074,0.569,0.591 C26.745,14.813,26.45,15.066,26.218,15.108z"/><linearGradient id="A7EXgU1zfKmINu_ywwHp9f" x1="29.938" x2="29.938" y1="6.266" y2="57.506" gradientUnits="userSpaceOnUse" spreadMethod="reflect"><stop offset="0" stop-color="#1a6dff"/><stop offset="1" stop-color="#c822ff"/></linearGradient><path fill="url(#A7EXgU1zfKmINu_ywwHp9f)" d="M29.938,10.266c-0.954,0-1.727,0.923-1.727,2.859c0,2.258,0.773,2.859,1.727,2.859 s1.727-0.951,1.727-2.859C31.664,11.217,30.891,10.266,29.938,10.266z M29.938,15.033c-0.405,0-0.734-0.395-0.734-1.88 c0-1.273,0.329-1.88,0.734-1.88c0.405,0,0.734,0.625,0.734,1.88C30.672,14.408,30.343,15.033,29.938,15.033z"/><linearGradient id="A7EXgU1zfKmINu_ywwHp9g" x1="33.919" x2="33.919" y1="6.327" y2="57.639" gradientUnits="userSpaceOnUse" spreadMethod="reflect"><stop offset="0" stop-color="#1a6dff"/><stop offset="1" stop-color="#c822ff"/></linearGradient><path fill="url(#A7EXgU1zfKmINu_ywwHp9g)" d="M34.7,13.419c0,0,0.803-0.288,0.803-1.47c0-1.182-0.955-1.531-1.318-1.546 s-1.925-0.076-1.925-0.076v5.562h0.985c0,0.015,0.015-2.304,0.015-2.304h0.379l0.849,2.349l1.091,0.045L34.7,13.419z M33.972,12.661 c-0.318,0-0.727,0-0.727,0v-1.334c0,0,0.333,0,0.591,0s0.682,0.152,0.682,0.591C34.518,12.358,34.291,12.661,33.972,12.661z"/><linearGradient id="A7EXgU1zfKmINu_ywwHp9h" x1="37.555" x2="37.555" y1="6.362" y2="57.802" gradientUnits="userSpaceOnUse" spreadMethod="reflect"><stop offset="0" stop-color="#1a6dff"/><stop offset="1" stop-color="#c822ff"/></linearGradient><path fill="url(#A7EXgU1zfKmINu_ywwHp9h)" d="M38.2,14.148l-0.564-0.038v-0.968l1.58,0.132c0,0,0,1.034,0,1.298s0,1.608-1.467,1.608 s-1.862-1.495-1.862-3.084s0.517-2.67,1.636-2.67c1.576,0,1.702,1.702,1.702,1.702l-1.015,0.179c0,0-0.15-0.874-0.592-0.874 s-0.743,0.79-0.743,1.777s0.216,1.984,0.818,1.984c0.513,0,0.517-0.602,0.517-0.724C38.209,14.345,38.2,14.148,38.2,14.148z"/><linearGradient id="A7EXgU1zfKmINu_ywwHp9i" x1="41.599" x2="41.599" y1="6.385" y2="57.898" gradientUnits="userSpaceOnUse" spreadMethod="reflect"><stop offset="0" stop-color="#1a6dff"/><stop offset="1" stop-color="#c822ff"/></linearGradient><path fill="url(#A7EXgU1zfKmINu_ywwHp9i)" d="M39.959 10.76L39.959 16.314 40.928 16.464 40.947 14.022 42.214 14.19 42.196 16.613 43.239 16.799 43.239 11.282 42.214 11.077 42.214 13.202 40.965 13.015 40.965 10.91z"/><linearGradient id="A7EXgU1zfKmINu_ywwHp9j" x1="44.549" x2="44.549" y1="6.381" y2="57.628" gradientUnits="userSpaceOnUse" spreadMethod="reflect"><stop offset="0" stop-color="#1a6dff"/><stop offset="1" stop-color="#c822ff"/></linearGradient><path fill="url(#A7EXgU1zfKmINu_ywwHp9j)" d="M44.031 11.443L44.031 16.957 45.067 17.153 45.067 11.639z"/><linearGradient id="A7EXgU1zfKmINu_ywwHp9k" x1="47.536" x2="47.536" y1="6.37" y2="57.778" gradientUnits="userSpaceOnUse" spreadMethod="reflect"><stop offset="0" stop-color="#1a6dff"/><stop offset="1" stop-color="#c822ff"/></linearGradient><path fill="url(#A7EXgU1zfKmINu_ywwHp9k)" d="M45.906 11.807L45.906 17.321 46.872 17.615 46.872 14.186 48.327 18.006 49.167 18.328 49.167 12.731 48.159 12.395 48.159 15.362 46.844 12.031z"/><linearGradient id="A7EXgU1zfKmINu_ywwHp9l" x1="50.496" x2="50.496" y1="6.414" y2="57.626" gradientUnits="userSpaceOnUse" spreadMethod="reflect"><stop offset="0" stop-color="#1a6dff"/><stop offset="1" stop-color="#c822ff"/></linearGradient><path fill="url(#A7EXgU1zfKmINu_ywwHp9l)" d="M49.992 13.039L49.992 18.594 51 19 51 13.389z"/><linearGradient id="A7EXgU1zfKmINu_ywwHp9m" x1="34.463" x2="34.463" y1="19.366" y2="46" gradientUnits="userSpaceOnUse" spreadMethod="reflect"><stop offset="0" stop-color="#6dc7ff"/><stop offset="1" stop-color="#e6abff"/></linearGradient><path fill="url(#A7EXgU1zfKmINu_ywwHp9m)" fill-rule="evenodd" d="M43.771,35.237c-0.453-0.159-0.963-0.487-1.564-1.201 c0.068-0.306,0.091-0.51,0.079-0.68c-0.011-0.17-0.068-0.306-0.125-0.499c-0.068-0.17-0.159-0.34-0.215-0.612 c-0.045-0.272-0.057-0.634,0.057-1.212c0.091-0.589,0.136-1.518-0.057-2.561c-0.181-1.031-0.578-2.175-1.348-3.15 c0.272-0.668,0.419-1.133,0.476-1.518c0.045-0.374,0-0.668-0.136-0.997c-0.136-0.34-0.532-0.646-1.122-0.872 c-0.578-0.227-1.36-0.374-2.266-0.419c-0.918-0.034-2.209-0.057-3.274-0.147c-1.088-0.091-1.926-0.238-1.903-0.51 c0.011-0.283,0.17-0.397,0.374-0.453c0.204-0.057,0.464-0.045,0.657-0.057c0.295,0.136,0.736,0.238,1.178,0.317 c0.442,0.057,0.906,0.091,1.292,0.102c0.362,0.034,0.725-0.057,1.11-0.147c0.374-0.068,0.77-0.159,1.224-0.136 c-0.374-0.147-0.838-0.351-1.326-0.521c-0.476-0.17-0.986-0.283-1.416-0.215c-0.147-0.17-0.249-0.283-0.431-0.351 c-0.17-0.045-0.419-0.045-0.827,0.023c-0.408,0.091-0.657,0.113-0.884,0.125c-0.204,0.011-0.397,0.023-0.635,0.068 c-0.261,0.034-0.612,0.045-0.906,0.17c-0.295,0.125-0.544,0.329-0.555,0.77c-0.034,0.431,0.091,0.816,0.499,1.11 c0.431,0.283,1.133,0.487,2.3,0.544c1.156,0.068,2.425,0.102,3.467,0.227c1.042,0.125,1.847,0.306,2.107,0.657 c0.261,0.34,0.329,0.566,0.272,0.736c-0.057,0.181-0.227,0.306-0.442,0.476c-0.17-0.011-0.476-0.011-0.85-0.068 c-0.363-0.045-0.782-0.147-1.156-0.34c-0.351-0.193-0.804-0.329-1.246-0.363c-0.442-0.023-0.906,0.023-1.292,0.215 c-0.397,0.181-1.348,0.566-2.334,1.212c-0.997,0.634-2.028,1.518-2.572,2.708c-0.544,1.19-0.816,1.949-0.986,2.481 c-0.17,0.521-0.238,0.816-0.351,1.088c-0.113,0.272-0.295,0.544-0.453,0.861c-0.159,0.306-0.295,0.657-0.329,1.065 c-0.011,0.397-0.068,0.872-0.159,1.326c-0.068,0.453-0.17,0.884-0.261,1.212c-0.102,0.317-0.204,0.702-0.317,1.122 c-0.102,0.419-0.193,0.884-0.215,1.394c-0.023,0.498-0.079,1.008-0.181,1.484c-0.079,0.362-0.181,0.691-0.295,0.997 c-0.045,0.102-0.079,0.193-0.113,0.272c-0.023,0.057-0.057,0.113-0.068,0.17c-0.125,0.306-0.181,0.589-0.249,0.838 c-0.057,0.306-0.147,0.612-0.329,0.895c-0.204,0.295-0.465,0.668-0.703,1.008c-0.261,0.351-0.521,0.68-0.714,0.906 c-0.045,0.045-0.079,0.113-0.125,0.17C24.057,45.116,24,45.275,24,45.422c0,0.023,0.011,0.045,0.011,0.068 c0.045,0.227,0.227,0.419,0.601,0.476c0.374,0.079,0.702,0.011,0.963-0.125c0.249-0.136,0.419-0.363,0.487-0.623 c0.057-0.238,0.079-0.589,0.125-0.952c0.034-0.374,0.079-0.725,0.227-0.997l0.283-0.6c0.136-0.193,0.227-0.272,0.317-0.317 c0.102-0.068,0.181-0.113,0.317-0.261c0.125-0.147,0.351-0.544,0.544-1.02c0.204-0.453,0.363-0.963,0.374-1.326 c0.023-0.34,0.079-0.634,0.147-0.85c0.079-0.238,0.181-0.419,0.295-0.601c0.102-0.17,0.17-0.374,0.283-0.521 c0.091-0.147,0.227-0.249,0.453-0.204c0.227,0.034,0.283,0.159,0.295,0.306c0.034,0.147,0,0.329,0.068,0.476 c0.068,0.159,0.136,0.317,0.238,0.476c0.102,0.147,0.227,0.283,0.431,0.374c0.193,0.079,0.363,0.238,0.431,0.419 c0.079,0.193,0.068,0.385-0.068,0.555c-0.136,0.181-0.329,0.476-0.487,0.77c-0.159,0.317-0.295,0.623-0.295,0.816 c-0.011,0.204,0,0.51-0.068,0.827c-0.034,0.227-0.113,0.476-0.261,0.691l-0.17,0.181c-0.261,0.249-0.476,0.499-0.634,0.703 c-0.147,0.215-0.238,0.397-0.238,0.521c-0.011,0.136,0.045,0.306,0.17,0.442c0.125,0.147,0.329,0.261,0.668,0.272 c0.317,0.011,0.578-0.045,0.782-0.147c0.181-0.113,0.317-0.295,0.408-0.51c0.079-0.227,0.079-0.385,0.057-0.532 c-0.023-0.147-0.068-0.272-0.057-0.442c0.011-0.147,0.057-0.317,0.136-0.499c0.057-0.181,0.136-0.363,0.17-0.532 c0.023-0.193,0.079-0.397,0.17-0.634c0.091-0.238,0.238-0.499,0.453-0.77c0.204-0.261,0.34-0.499,0.442-0.703 c0.113-0.215,0.181-0.408,0.317-0.566c0.136-0.181,0.204-0.261,0.249-0.295c0.057-0.023,0.102,0.034,0.227,0.102 c0.125,0.091,0.136,0.159,0.113,0.249c-0.023,0.091-0.113,0.181-0.193,0.306c-0.079,0.125-0.238,0.34-0.419,0.544 c-0.159,0.227-0.34,0.464-0.442,0.634c-0.079,0.113-0.125,0.249-0.147,0.385c-0.011,0-0.011,0-0.011,0.023 c-0.011,0.057-0.011,0.102-0.011,0.147c0,0.011,0,0.011,0,0.034c0.023,0.193,0.147,0.351,0.419,0.397 c0.283,0.034,0.487,0.045,0.646,0.011c0.159-0.045,0.238-0.125,0.283-0.272c0.023-0.159,0.079-0.397,0.17-0.634 c0.091-0.238,0.181-0.476,0.283-0.623c0.113-0.147,0.193-0.283,0.227-0.397c0.045-0.125,0.057-0.227,0.068-0.295 c0.136,0.159,0.261,0.351,0.363,0.532c0.102,0.181,0.17,0.385,0.238,0.555c0.068,0.193,0.238,0.408,0.544,0.6 c0.306,0.17,0.759,0.306,1.382,0.317c0.635,0,0.963-0.011,1.133-0.057c0.181-0.057,0.227-0.136,0.306-0.295 c0.091-0.147,0.272-0.431,0.385-0.736c0.102-0.317,0.113-0.623-0.159-0.816c0.068-0.249,0.159-0.589,0.283-0.906 c0.136-0.34,0.295-0.646,0.521-0.827c0.215-0.204,0.499-0.385,0.748-0.566c0.249-0.17,0.476-0.317,0.566-0.442 c0.306,0.204,0.601,0.431,0.816,0.759c0.215,0.329,0.351,0.736,0.351,1.314c-0.034,0.295,0,0.578,0.034,0.827 c0.034,0.249,0.068,0.465,0.091,0.623c0.023,0.147,0.011,0.317,0,0.476c0,0.17-0.023,0.351,0,0.532 c0.023,0.181,0.113,0.351,0.272,0.476c0.136,0.125,0.306,0.181,0.453,0.17c0.147-0.011,0.295-0.147,0.408-0.317 c0.113-0.181,0.181-0.385,0.204-0.566c0-0.181-0.045-0.306-0.102-0.419c-0.079-0.091-0.159-0.181-0.227-0.261 c-0.068-0.068-0.125-0.147-0.136-0.227c0-0.102,0.023-0.227,0.113-0.431c0.091-0.193,0.091-0.385,0.034-0.532 c-0.034-0.147-0.125-0.261-0.193-0.34c-0.079-0.079-0.147-0.295-0.204-0.589c-0.045-0.272-0.068-0.612-0.023-0.952 c0.034-0.317,0.023-0.703-0.045-1.042c-0.079-0.329-0.204-0.612-0.397-0.748c0.578,0,1.246,0,1.847-0.136 c0.601-0.136,1.133-0.397,1.473-0.918C44.586,35.395,44.213,35.395,43.771,35.237z M41.856,35.735 c-0.521-0.147-0.963-0.397-1.144-0.68c-0.113-0.147-0.261-0.295-0.431-0.408c-0.159-0.125-0.351-0.215-0.521-0.272 c-0.17-0.068-0.465-0.204-0.748-0.34c-0.283-0.147-0.566-0.295-0.736-0.397c-0.045,0.079-0.136,0.181-0.272,0.283 c-0.125,0.125-0.306,0.261-0.499,0.408c-0.204,0.17-0.249,0.295-0.238,0.397c0.011,0.113,0.079,0.215,0.125,0.295 c0.045,0.079,0.272,0.295,0.499,0.499c0.238,0.227,0.464,0.453,0.555,0.555c-0.295-0.034-0.487-0.057-0.702-0.147 c-0.238-0.091-0.499-0.249-0.918-0.555c-0.442-0.306-0.544-0.601-0.544-0.85c0.011-0.261,0.147-0.453,0.227-0.533 c0.079-0.091,0.238-0.215,0.419-0.34c0.159-0.113,0.317-0.215,0.385-0.261c0.091-0.045,0.125-0.125,0.125-0.17 c-0.011-0.045-0.057-0.102-0.159-0.091c-0.736,0.068-1.269,0.238-1.632,0.442c-0.351,0.193-0.521,0.408-0.533,0.578 c-0.023,0.159-0.011,0.306,0.045,0.464c0.068,0.136,0.159,0.283,0.317,0.442c0.136,0.159,0.181,0.34,0.17,0.533 c-0.011,0.17-0.102,0.329-0.204,0.431c-0.102,0.091-0.147,0.136-0.193,0.215c-0.034,0.068-0.068,0.17-0.136,0.385 c-0.079,0.193-0.136,0.578-0.193,0.986c-0.045,0.408-0.079,0.838-0.068,1.156c0.113-0.159,0.261-0.283,0.419-0.374 c0.147-0.091,0.306-0.136,0.419-0.17c0.023,0.77-0.045,1.326-0.147,1.733c-0.079,0.397-0.204,0.657-0.283,0.85 c-0.011,0.079-0.045,0.102-0.102,0.091c-0.034-0.011-0.068-0.057-0.079-0.113c-0.045-0.204-0.125-0.476-0.238-0.748 c-0.113-0.261-0.238-0.499-0.374-0.646c-0.363-0.397-0.521-0.6-0.578-0.759c-0.079-0.181-0.057-0.306-0.045-0.521 c-0.589-0.351-0.748-0.736-0.736-1.076c0.023-0.34,0.238-0.657,0.408-0.884c0.17-0.215,0.317-0.487,0.431-0.725 c0.102-0.238,0.17-0.476,0.193-0.612c0.023-0.136-0.034-0.397-0.125-0.668c-0.091-0.272-0.238-0.566-0.385-0.782 c-0.045-0.011-0.136-0.045-0.249-0.034c-0.125,0.011-0.249,0.068-0.351,0.249c-0.102,0.17-0.204,0.261-0.317,0.295 c-0.125,0.034-0.249,0.034-0.374,0.023c-0.125-0.023-0.283-0.045-0.419-0.023c-0.147,0.011-0.295,0.068-0.397,0.204 c-0.113,0.147-0.238,0.147-0.363,0.091c-0.125-0.045-0.249-0.147-0.34-0.193c-0.102-0.068-0.159-0.125-0.227-0.17 c-0.079-0.045-0.193-0.068-0.397-0.068c-0.227,0-0.306,0.147-0.397,0.306c-0.079,0.159-0.159,0.329-0.351,0.362 c-0.193,0.045-0.317-0.068-0.385-0.261c-0.057-0.204-0.068-0.487-0.045-0.793c-0.023-0.397,0.147-0.986,0.374-1.541 s0.476-1.065,0.601-1.303c0.125-0.249,0.329-0.736,0.532-1.28c0.215-0.533,0.431-1.11,0.578-1.575 c0.147-0.442,0.442-0.782,0.782-1.076c0.34-0.295,0.748-0.566,1.11-0.884c0.351-0.306,0.782-0.589,1.201-0.793 c0.419-0.193,0.816-0.306,1.122-0.283c0.306,0.023,0.601,0.215,0.861,0.419c0.249,0.215,0.442,0.442,0.533,0.566 c0.102,0.125,0.17,0.397,0.249,0.691c0.079,0.283,0.159,0.589,0.272,0.782c0.102,0.181,0.181,0.453,0.249,0.782 c0.057,0.317,0.125,0.68,0.159,1.031c0.045,0.363,0.17,0.623,0.295,0.838c0.136,0.215,0.283,0.397,0.374,0.566 c0.091,0.181,0.17,0.623,0.295,1.088c0.113,0.487,0.249,1.008,0.453,1.36c0.193,0.374,0.532,0.623,0.85,0.793 c0.329,0.181,0.646,0.272,0.804,0.34c0.159,0.045,0.272,0.068,0.397,0.147c0.113,0.079,0.238,0.181,0.419,0.442 c0.261,0.351,0.668,0.646,1.054,0.872c0.374,0.227,0.736,0.374,0.895,0.431C42.955,35.917,42.354,35.883,41.856,35.735z" clip-rule="evenodd"/></svg>