<svg xmlns="http://www.w3.org/2000/svg" width="24" height="24" viewBox="0 0 24 24" fill="none">
  <g clip-path="url(#clip0_2311_4720)">
    <path fill-rule="evenodd" clip-rule="evenodd" d="M23 12C23 5.92487 18.0751 1 12 1C5.92487 1 1 5.92487 1 12C1 18.0751 5.92487 23 12 23C18.0751 23 23 18.0751 23 12ZM12 0C18.6274 0 24 5.37258 24 12C24 18.6274 18.6274 24 12 24C5.37258 24 0 18.6274 0 12C0 5.37258 5.37258 0 12 0Z" fill="#5865F2"/>
    <path d="M17.5645 7.008C16.5215 6.536 15.4137 6.192 14.2575 6C14.1119 6.248 13.9502 6.584 13.837 6.848C12.6072 6.672 11.3862 6.672 10.1734 6.848C10.0602 6.584 9.89036 6.248 9.7529 6C8.58858 6.192 7.48084 6.536 6.44507 7.008C4.35088 10.064 3.78488 13.048 4.06788 15.992C5.45862 16.992 6.80085 17.6 8.11963 18C8.44305 17.568 8.73414 17.104 8.9848 16.616C8.50774 16.44 8.05494 16.224 7.61832 15.968C7.73152 15.888 7.84472 15.8 7.94984 15.712C10.5858 16.904 13.4408 16.904 16.0444 15.712C16.1576 15.8 16.2627 15.888 16.3759 15.968C15.9393 16.224 15.4865 16.44 15.0094 16.616C15.2601 17.104 15.5512 17.568 15.8746 18C17.1925 17.6 18.5429 16.992 19.9263 15.992C20.274 12.584 19.3757 9.62402 17.5645 7.008ZM9.34865 14.176C8.55624 14.176 7.90939 13.464 7.90939 12.592C7.90939 11.72 8.54007 11.008 9.34865 11.008C10.1491 11.008 10.804 11.72 10.7879 12.592C10.7879 13.464 10.1491 14.176 9.34865 14.176ZM14.6618 14.176C13.8693 14.176 13.2217 13.464 13.2217 12.592C13.2217 11.72 13.8532 11.008 14.6618 11.008C15.4622 11.008 16.1172 11.72 16.101 12.592C16.101 13.464 15.4703 14.176 14.6618 14.176Z" fill="#5865F2"/>
  </g>
  <defs>
    <clipPath id="clip0_2311_4720">
      <rect width="24" height="24" fill="white"/>
    </clipPath>
  </defs>
</svg>
