<svg xmlns="http://www.w3.org/2000/svg" width="24" height="24" viewBox="0 0 24 24" fill="none">
  <path fill-rule="evenodd" clip-rule="evenodd" d="M23 12C23 5.92487 18.0751 1 12 1C5.92487 1 1 5.92487 1 12C1 18.0751 5.92487 23 12 23C18.0751 23 23 18.0751 23 12ZM12 0C18.6274 0 24 5.37258 24 12C24 18.6274 18.6274 24 12 24C5.37258 24 0 18.6274 0 12C0 5.37258 5.37258 0 12 0Z" fill="#0077FF"/>
  <path d="M12.6252 16.7358C7.84193 16.7358 5.11368 13.4566 5 8H7.396C7.4747 12.005 9.24106 13.7014 10.6402 14.0512V8H12.8964V11.4541C14.278 11.3054 15.7294 9.73142 16.2191 8H18.4752C18.0992 10.1337 16.5252 11.7077 15.4059 12.3548C16.5252 12.8795 18.3179 14.2523 19 16.7358H16.5165C15.983 15.0743 14.654 13.7889 12.8964 13.614V16.7358H12.6252Z" fill="#0077FF"/>
</svg>
