<svg width="112" height="80" viewBox="0 0 112 80" fill="none" xmlns="http://www.w3.org/2000/svg">
  <g clip-path="url(#clip0_313_3702)" fill="#999">
    <path fill-rule="evenodd" clip-rule="evenodd" d="M1.5 1.5h109v77H1.5v-77zM112 0v80H0V0h112z"/>
    <path d="M32.77 30.242l-8.945-2.177c-1.522-.354-3.898-.963-3.898-3.84 0-3.289 3.49-4.402 6.422-4.402 6.674 0 7.284 3.896 7.482 5.563h4.258v6.843c-1.562-.913-3.407-1.505-5.318-1.987zm-4.856 21.892c1.92 0 6.643-.336 10.175-2.914v1.956h7.125l.007-8.6 2.974-3.081 6.477 11.68h8.55l-9.813-16.688 9.557-10.518h-8.752l-8.993 10.32V14.464H38.09V17.6c-2.17-2.332-5.692-4.095-11.18-4.095-11.883 0-14.115 7.23-14.115 11.275 0 5.56 2.99 8.65 8.197 9.913l7.381 1.818c3.894.96 6.677 1.669 6.677 4.55 0 3.844-4.049 4.753-7.69 4.753-6.674 0-7.786-3.892-7.786-5.965H12.24c0 4.55 2.325 12.285 15.674 12.285M18.385 68.175c-.729 0-1.293-.063-1.692-.188v-2.185c.3.137.59.204.871.204.533 0 .922-.232 1.163-.7l.05-.104-5.124-9.478h3.055l3.299 6.85 2.493-6.85h2.936l-4.424 10.211a3.901 3.901 0 01-.806 1.23 3.912 3.912 0 01-1.002.757c-.334.17-.608.253-.819.253M33.146 67.987h-2.388v-3.742c-.24.138-.617.313-1.134.522a4.123 4.123 0 01-1.563.313c-.956 0-1.71-.252-2.262-.757-.553-.507-.83-1.311-.83-2.417v-3.005h2.39v2.936c0 .82.519 1.23 1.555 1.23.32 0 .662-.071 1.03-.21a7.36 7.36 0 00.814-.353V58.9h2.388v9.086zM40.869 63.563c-.26.203-.804.368-1.627.495a4.615 4.615 0 00-.858.22 1.25 1.25 0 00-.554.406c-.14.18-.21.427-.21.74 0 .376.116.65.348.827.23.176.485.265.766.265.358 0 .702-.075 1.03-.222.328-.147.594-.356.798-.629.205-.272.307-.586.307-.94v-1.162zm2.34 2.647c0 .494.045.838.135 1.03.09.195.221.323.394.388v.36h-2.582a5.051 5.051 0 01-.22-1.08 5.37 5.37 0 01-1.222.957c-.428.24-1 .36-1.718.36-.48 0-.932-.095-1.353-.284a2.348 2.348 0 01-1.022-.88c-.259-.397-.39-.892-.39-1.483 0-.57.113-1.061.338-1.472.225-.412.534-.733.926-.965a3.777 3.777 0 011.384-.465l2.152-.324c.56-.076.838-.314.838-.716 0-.442-.15-.729-.45-.861-.3-.131-.674-.197-1.122-.197-.529 0-.893.118-1.094.358-.201.24-.328.54-.378.905h-2.302c.086-.874.324-1.543.715-2.007a2.837 2.837 0 011.418-.934c.555-.158 1.198-.236 1.929-.236.539 0 1.079.07 1.622.212.541.142 1.01.41 1.408.801.395.392.593.93.593 1.613v4.92M53.106 64.672a4.403 4.403 0 01-.24 1.029 3.994 3.994 0 01-.659 1.156c-.307.389-.73.715-1.271.977-.541.26-1.2.391-1.979.391-.809 0-1.49-.138-2.043-.412-.554-.277-.985-.636-1.3-1.081a4.323 4.323 0 01-.663-1.45 6.474 6.474 0 01-.197-1.581c0-1.007.152-1.887.457-2.642.305-.754.781-1.343 1.432-1.764.65-.421 1.473-.631 2.469-.631.569 0 1.146.102 1.728.306.582.205 1.09.566 1.526 1.086.435.52.687 1.216.756 2.09H50.7c-.175-.98-.705-1.469-1.588-1.469-.465 0-.84.133-1.125.397a2.146 2.146 0 00-.6.99 4.478 4.478 0 00-.173 1.245c0 .492.033.943.1 1.356.067.413.237.783.511 1.109.274.324.684.487 1.232.487.365 0 .67-.094.916-.284a1.72 1.72 0 00.539-.663c.114-.253.172-.466.172-.642h2.422M56.73 67.987v-7.172h-2.714v-1.914h7.823v1.914h-2.72v7.172h-2.388zM71.306 67.987h-2.388v-3.586H65.52v3.586H63.13v-9.086h2.39v3.586h3.398v-3.586h2.388v9.086M81.625 67.987h-2.388v-5.466l-3.228 5.466h-2.56v-9.086h2.39v5.466l3.226-5.466h2.56v9.086M86.158 67.987h-2.39v-9.086h2.39v3.45l3.006-3.45h2.984l-3.26 3.52 3.398 5.566h-2.902l-2.238-3.895-.988 1.026v2.87"/>
  </g>
  <defs>
    <clipPath id="clip0_313_3702">
      <path fill="#fff" d="M0 0h112v80H0z"/>
    </clipPath>
  </defs>
</svg>
