<svg xmlns="http://www.w3.org/2000/svg" width="24" height="24" viewBox="0 0 24 24" fill="none">
  <g clip-path="url(#clip0_2723_4762)">
    <path fill-rule="evenodd" clip-rule="evenodd" d="M23 12C23 5.92487 18.0751 1 12 1C5.92487 1 1 5.92487 1 12C1 18.0751 5.92487 23 12 23C18.0751 23 23 18.0751 23 12ZM12 0C18.6274 0 24 5.37258 24 12C24 18.6274 18.6274 24 12 24C5.37258 24 0 18.6274 0 12C0 5.37258 5.37258 0 12 0Z" fill="url(#paint0_linear_2723_4762)"/>
    <path d="M5.24384 11.9526C8.85228 10.3948 11.2579 9.36763 12.4607 8.87141C15.899 7.45442 16.6125 7.20832 17.0785 7.20008C17.181 7.19835 17.4092 7.22346 17.5581 7.34287C17.6819 7.44349 17.7167 7.57958 17.7341 7.67503C17.7496 7.77048 17.7709 7.98802 17.7535 8.15783C17.5678 10.0975 16.7615 14.8044 16.3515 16.977C16.1794 17.8962 15.8371 18.2044 15.5064 18.2345C14.787 18.3001 14.2417 17.7638 13.5455 17.3116C12.4568 16.6038 11.8419 16.1633 10.7841 15.4728C9.56197 14.6747 10.3548 14.236 11.051 13.5191C11.2327 13.3315 14.4003 10.4766 14.4602 10.2177C14.4679 10.1853 14.4757 10.0645 14.4022 10.0009C14.3307 9.93707 14.2243 9.95892 14.1469 9.97617C14.0367 10.0007 12.2982 11.1407 8.92568 13.3961C8.43257 13.7323 7.98587 13.8961 7.58365 13.8875C7.14274 13.8781 6.29193 13.6399 5.65959 13.4363C4.88607 13.1866 4.26917 13.0545 4.32331 12.6304C4.35038 12.4096 4.6579 12.1836 5.24384 11.9526Z" fill="url(#paint1_linear_2723_4762)"/>
  </g>
    <defs>
    <linearGradient id="paint0_linear_2723_4762" x1="12" y1="0" x2="12" y2="24" gradientUnits="userSpaceOnUse">
    <stop stop-color="#2AABEE"/>
    <stop offset="1" stop-color="#229ED9"/>
    </linearGradient>
    <linearGradient id="paint1_linear_2723_4762" x1="11.04" y1="7.2" x2="11.04" y2="18.24" gradientUnits="userSpaceOnUse">
    <stop stop-color="#2AABEE"/>
    <stop offset="1" stop-color="#229ED9"/>
    </linearGradient>
    <clipPath id="clip0_2723_4762">
    <rect width="24" height="24" fill="white"/>
    </clipPath>
  </defs>
</svg>
