<svg width="120" height="40" viewBox="0 0 120 40" fill="none" xmlns="http://www.w3.org/2000/svg">
<g clip-path="url(#clip0_1943_3686)">
<path d="M115.556 40H4.44444C2 40 0 37.75 0 35V5C0 2.25 2 0 4.44444 0H115.556C118 0 120 2.25 120 5V35C120 37.75 118 40 115.556 40Z" fill="black"/>
<path d="M115.556 0H4.44444C2 0 0 2.25 0 5V35C0 37.75 2 40 4.44444 40H115.556C118 40 120 37.75 120 35V5C120 2.25 118 0 115.556 0ZM115.556 0.799999C117.614 0.799999 119.289 2.6844 119.289 5V35C119.289 37.316 117.614 39.2004 115.556 39.2004H4.44444C2.38613 39.2004 0.711111 37.316 0.711111 35V5C0.711111 2.6844 2.38613 0.799999 4.44444 0.799999H115.556Z" fill="#A6A6A6"/>
<path d="M10.6287 31.6633C12.5637 33.5713 15.6782 33.5713 21.9071 33.5713H23.0082C29.2371 33.5713 32.3516 33.5713 34.2867 31.6633C36.2217 29.7554 36.2217 26.6845 36.2217 20.5427V19.457C36.2217 13.3152 36.2217 10.2444 34.2867 8.33639C32.3516 6.42847 29.2371 6.42847 23.0082 6.42847H21.9071C15.6782 6.42847 12.5637 6.42847 10.6287 8.33639C8.69367 10.2444 8.69366 13.3152 8.69366 19.457V20.5427C8.69366 26.6845 8.69367 29.7554 10.6287 31.6633Z" fill="#0077FF"/>
<path fill-rule="evenodd" clip-rule="evenodd" d="M29.9459 24.4692L28.0859 24.0111C27.8619 23.9477 27.7037 23.749 27.6958 23.5181L27.4637 16.768C27.3965 15.8746 26.7239 15.164 26.0211 14.9548C25.9816 14.943 25.9394 14.9588 25.9161 14.9923C25.8923 15.0264 25.9015 15.0735 25.9346 15.0987C26.1082 15.2312 26.5859 15.6635 26.5859 16.4092L26.5845 25.2348C26.5845 26.0869 25.7678 26.7119 24.9254 26.5045L23.0367 26.0392C22.8273 25.967 22.6817 25.7747 22.6741 25.5529L22.4421 18.8023C22.3749 17.9089 21.7023 17.1984 20.9994 16.9891C20.96 16.9774 20.9178 16.9932 20.8944 17.0266C20.8707 17.0607 20.8799 17.1078 20.913 17.1331C21.0866 17.2655 21.5643 17.6979 21.5643 18.4435L21.5629 25.8001L21.564 25.8002V27.2699C21.564 28.1221 20.7472 28.7472 19.9048 28.5396L14.57 27.2256C13.8283 27.0429 13.3083 26.3888 13.3083 25.6385V16.7992C13.3083 15.947 14.125 15.322 14.9674 15.5295L18.3289 16.3575V14.764C18.3289 13.9118 19.1456 13.2868 19.988 13.4943L23.3493 14.3222V12.7288C23.3493 11.8766 24.166 11.2515 25.0084 11.4591L30.3433 12.7731C31.085 12.9558 31.605 13.6099 31.605 14.3602V23.1995C31.605 24.0517 30.7883 24.6767 29.9459 24.4692Z" fill="white"/>
<path d="M52.3442 31.4286H50.2405L46.9024 26.8343H45.1464V31.4286H43.3556V19.3429H47.6674C48.5019 19.3429 49.2495 19.5029 49.9102 19.8229C50.5708 20.1429 51.0808 20.5886 51.4401 21.16C51.8111 21.72 51.9965 22.3657 51.9965 23.0972C51.9965 24.0115 51.7125 24.7943 51.1446 25.4457C50.5767 26.0857 49.8174 26.5086 48.867 26.7143L52.3442 31.4286ZM45.1464 20.9715V25.2229H47.6674C48.4091 25.2229 49.0061 25.0286 49.4581 24.64C49.9217 24.24 50.1536 23.7257 50.1536 23.0972C50.1536 22.4686 49.9217 21.96 49.4581 21.5715C49.0061 21.1715 48.4091 20.9715 47.6674 20.9715H45.1464Z" fill="white"/>
<path d="M57.096 31.6C56.4585 31.6 55.8848 31.4457 55.3748 31.1372C54.8648 30.8172 54.4649 30.3829 54.1751 29.8344C53.8853 29.2744 53.7405 28.6457 53.7405 27.9486V22.5657H55.4443V27.8115C55.4443 28.4857 55.6356 29.0344 56.018 29.4572C56.4006 29.88 56.8932 30.0915 57.4959 30.0915C58.1218 30.0915 58.6433 29.8744 59.0606 29.44C59.4779 29.0057 59.6866 28.4629 59.6866 27.8115V22.5657H61.3904V31.4286H60.1733L59.7735 30.0915C59.4837 30.5715 59.1012 30.9429 58.6259 31.2057C58.1623 31.4686 57.6523 31.6 57.096 31.6Z" fill="white"/>
<path d="M67.7421 31.6001C66.6178 31.6001 65.6384 31.3144 64.8038 30.7429C63.9809 30.1601 63.4188 29.3715 63.1174 28.3772L64.8386 28.1029C65.1748 28.7429 65.5747 29.2172 66.0383 29.5258C66.5019 29.8229 67.0698 29.9715 67.7421 29.9715C68.426 29.9715 68.9823 29.8229 69.4112 29.5258C69.8401 29.2172 70.0545 28.8001 70.0545 28.2744C70.0545 27.8858 69.9328 27.5601 69.6894 27.2972C69.4575 27.0344 69.162 26.8229 68.8027 26.6629C68.4434 26.5029 67.9739 26.3258 67.3944 26.1315C66.6178 25.8801 65.9803 25.6286 65.4819 25.3772C64.9835 25.1258 64.5605 24.7715 64.2128 24.3144C63.8766 23.8458 63.7085 23.2515 63.7085 22.5315C63.7085 21.8572 63.8766 21.2686 64.2128 20.7658C64.5605 20.2515 65.0357 19.8572 65.6384 19.5829C66.2411 19.3086 66.9134 19.1715 67.6552 19.1715C68.6868 19.1715 69.5734 19.4401 70.3153 19.9772C71.0571 20.5029 71.5844 21.2286 71.8974 22.1544L70.211 22.4286C69.9791 21.9029 69.6488 21.5029 69.2199 21.2286C68.7911 20.9429 68.2869 20.8001 67.7074 20.8001C67.0814 20.8001 66.5657 20.9486 66.16 21.2458C65.7543 21.5315 65.5515 21.9258 65.5515 22.4286C65.5515 22.8058 65.6674 23.1258 65.8992 23.3886C66.1426 23.6515 66.4381 23.8629 66.7859 24.0229C67.1452 24.1829 67.6205 24.3658 68.2115 24.5715C68.9649 24.8229 69.5908 25.0801 70.0892 25.3429C70.5992 25.5944 71.0281 25.9544 71.3758 26.4229C71.7235 26.8915 71.8974 27.4801 71.8974 28.1886C71.8974 28.8744 71.712 29.4744 71.3411 29.9886C70.9818 30.5029 70.4834 30.9029 69.8458 31.1886C69.2199 31.4629 68.5187 31.6001 67.7421 31.6001Z" fill="white"/>
<path d="M79.0946 29.9544L78.9385 31.4286H77.3562C76.4169 31.4286 75.7046 31.2001 75.2177 30.7429C74.7308 30.2858 74.4873 29.6286 74.4873 28.7715V24.0572H72.9399V22.5658H74.4873L74.9569 19.9944H76.1908V22.5658H78.9385V24.0572H76.1908V28.7715C76.1908 29.5601 76.5793 29.9544 77.3562 29.9544H79.0946Z" fill="white"/>
<path d="M84.777 31.6001C83.8608 31.6001 83.0439 31.4057 82.3254 31.0172C81.607 30.6286 81.0446 30.0858 80.6385 29.3886C80.2331 28.6915 80.03 27.8972 80.03 27.0057C80.03 26.1144 80.2331 25.3201 80.6385 24.6229C81.0446 23.9257 81.607 23.3829 82.3254 22.9944C83.0439 22.5944 83.8608 22.3944 84.777 22.3944C85.6923 22.3944 86.5093 22.5944 87.2277 22.9944C87.947 23.3829 88.5085 23.9257 88.9146 24.6229C89.32 25.3201 89.5231 26.1144 89.5231 27.0057C89.5231 27.8972 89.32 28.6915 88.9146 29.3886C88.5085 30.0858 87.947 30.6286 87.2277 31.0172C86.5093 31.4057 85.6923 31.6001 84.777 31.6001ZM84.777 30.0572C85.6577 30.0572 86.37 29.7772 86.9154 29.2172C87.4716 28.6572 87.75 27.9201 87.75 27.0057C87.75 26.0915 87.4716 25.3544 86.9154 24.7944C86.37 24.2229 85.6577 23.9372 84.777 23.9372C83.8954 23.9372 83.1831 24.2229 82.6385 24.7944C82.0931 25.3544 81.8208 26.0915 81.8208 27.0057C81.8208 27.9086 82.0931 28.6457 82.6385 29.2172C83.1831 29.7772 83.8954 30.0572 84.777 30.0572Z" fill="white"/>
<path d="M91.35 31.4286V22.5657H92.5846L92.95 23.8344C93.2161 23.3886 93.5469 23.0686 93.9407 22.8743C94.3346 22.6686 94.8046 22.5657 95.3492 22.5657H95.7661L95.9054 24.1772H94.9315C94.3061 24.1772 93.8361 24.3544 93.5238 24.7086C93.2107 25.0629 93.0538 25.5429 93.0538 26.1486V31.4286H91.35Z" fill="white"/>
<path d="M105.646 26.9372C105.646 27.1657 105.641 27.3429 105.629 27.4686H98.2046C98.2977 28.2572 98.6108 28.8857 99.1438 29.3544C99.6769 29.8229 100.355 30.0572 101.178 30.0572C101.746 30.0572 102.25 29.9486 102.691 29.7315C103.142 29.5029 103.485 29.2057 103.716 28.8401L105.316 29.0972C104.968 29.8972 104.406 30.5144 103.629 30.9486C102.865 31.3829 102.012 31.6001 101.074 31.6001C100.182 31.6001 99.3815 31.4057 98.6746 31.0172C97.9677 30.6172 97.4169 30.0686 97.0231 29.3715C96.6285 28.6744 96.4315 27.8857 96.4315 27.0057C96.4315 26.1144 96.6285 25.3201 97.0231 24.6229C97.4169 23.9257 97.9615 23.3829 98.6569 22.9944C99.3523 22.5944 100.146 22.3944 101.039 22.3944C101.92 22.3944 102.708 22.5944 103.403 22.9944C104.111 23.3829 104.661 23.9257 105.055 24.6229C105.449 25.3086 105.646 26.0801 105.646 26.9372ZM101.039 23.8857C100.355 23.8857 99.7638 24.0858 99.2654 24.4858C98.7784 24.8858 98.4538 25.4229 98.2915 26.0972H103.786C103.635 25.4344 103.311 24.9029 102.812 24.5029C102.325 24.0915 101.735 23.8857 101.039 23.8857Z" fill="white"/>
<path d="M45.8892 14.7076C45.2799 14.7076 44.7322 14.5661 44.2461 14.283C43.7599 13.9938 43.3784 13.5938 43.1015 13.083C42.8307 12.5723 42.6953 11.9969 42.6953 11.3569C42.6953 10.7169 42.8307 10.1446 43.1015 9.63994C43.3784 9.12917 43.7569 8.73225 44.2369 8.44917C44.723 8.15994 45.2707 8.01533 45.8799 8.01533C46.5384 8.01533 47.123 8.18148 47.6338 8.51379C48.1507 8.83994 48.5199 9.28302 48.7415 9.84302L47.7999 9.99071C47.6276 9.6461 47.3722 9.3784 47.0338 9.18764C46.7015 8.99071 46.3261 8.89225 45.9076 8.89225C45.4769 8.89225 45.0922 8.99687 44.7538 9.2061C44.4215 9.41533 44.1599 9.70764 43.9692 10.083C43.7845 10.4523 43.6922 10.8769 43.6922 11.3569C43.6922 11.843 43.7845 12.2738 43.9692 12.6492C44.1599 13.0184 44.4245 13.3076 44.763 13.5169C45.1015 13.7261 45.4892 13.8307 45.9261 13.8307C46.3569 13.8307 46.7384 13.7323 47.0707 13.5353C47.4092 13.3323 47.6676 13.0492 47.8461 12.6861L48.7876 12.8338C48.5538 13.4061 48.1753 13.8615 47.6522 14.1999C47.1292 14.5384 46.5415 14.7076 45.8892 14.7076Z" fill="white"/>
<path d="M53.6109 14.6153H52.4201L50.657 12.6399H50.3709V14.6153H49.4662V9.843H50.3709V11.7722H50.6478L52.337 9.843H53.4262L51.377 12.1507L53.6109 14.6153Z" fill="white"/>
<path d="M55.762 9.75079C56.3528 9.75079 56.8174 9.94463 57.1559 10.3323C57.5005 10.7139 57.6728 11.2492 57.6728 11.9385V14.6154H57.0267L56.8144 13.8677C56.6605 14.1077 56.4544 14.3077 56.1959 14.4677C55.9374 14.6277 55.6267 14.7077 55.2636 14.7077C54.9436 14.7077 54.6574 14.6431 54.4051 14.5139C54.1528 14.3846 53.9559 14.2062 53.8144 13.9785C53.6728 13.7446 53.6021 13.4831 53.6021 13.1939C53.6021 12.7446 53.7805 12.3846 54.1374 12.1139C54.4944 11.8431 55.0113 11.7077 55.6882 11.7077H56.7682C56.7436 11.3323 56.639 11.0431 56.4544 10.84C56.2697 10.6308 56.0236 10.5262 55.7159 10.5262C55.4821 10.5262 55.2759 10.5816 55.0974 10.6923C54.919 10.8031 54.7836 10.9477 54.6913 11.1262L53.8513 10.9877C53.9744 10.6062 54.2113 10.3046 54.5621 10.0831C54.9128 9.86156 55.3128 9.75079 55.762 9.75079ZM55.4574 13.9416C55.8451 13.9416 56.159 13.8154 56.399 13.5631C56.6451 13.3046 56.7682 12.9508 56.7682 12.5016V12.4462H55.7159C54.9159 12.4462 54.5159 12.6862 54.5159 13.1662C54.5159 13.4 54.6021 13.5877 54.7744 13.7292C54.9467 13.8708 55.1744 13.9416 55.4574 13.9416Z" fill="white"/>
<path d="M61.2178 12.8799C61.0701 12.9476 60.8947 12.9999 60.6916 13.0368C60.4885 13.0738 60.2885 13.0922 60.0916 13.0922C59.5193 13.0922 59.0793 12.9322 58.7716 12.6122C58.4639 12.2922 58.3101 11.8399 58.3101 11.2553V9.843H59.2147V11.2553C59.2147 11.9384 59.5439 12.2799 60.2024 12.2799C60.6024 12.2799 60.9408 12.2092 61.2178 12.0676V9.843H62.1224V14.6153H61.2178V12.8799Z" fill="white"/>
<path d="M65.0653 9.75079C65.6561 9.75079 66.1207 9.94463 66.4592 10.3323C66.8038 10.7139 66.9761 11.2492 66.9761 11.9385V14.6154H66.3299L66.1176 13.8677C65.9638 14.1077 65.7576 14.3077 65.4992 14.4677C65.2407 14.6277 64.9299 14.7077 64.5669 14.7077C64.2469 14.7077 63.9607 14.6431 63.7084 14.5139C63.4561 14.3846 63.2592 14.2062 63.1176 13.9785C62.9761 13.7446 62.9053 13.4831 62.9053 13.1939C62.9053 12.7446 63.0838 12.3846 63.4407 12.1139C63.7976 11.8431 64.3146 11.7077 64.9915 11.7077H66.0715C66.0469 11.3323 65.9423 11.0431 65.7576 10.84C65.573 10.6308 65.3269 10.5262 65.0192 10.5262C64.7853 10.5262 64.5792 10.5816 64.4007 10.6923C64.2223 10.8031 64.0869 10.9477 63.9946 11.1262L63.1546 10.9877C63.2776 10.6062 63.5146 10.3046 63.8653 10.0831C64.2161 9.86156 64.6161 9.75079 65.0653 9.75079ZM64.7607 13.9416C65.1484 13.9416 65.4623 13.8154 65.7023 13.5631C65.9484 13.3046 66.0715 12.9508 66.0715 12.5016V12.4462H65.0192C64.2192 12.4462 63.8192 12.6862 63.8192 13.1662C63.8192 13.4 63.9053 13.5877 64.0776 13.7292C64.25 13.8708 64.4776 13.9416 64.7607 13.9416Z" fill="white"/>
<path d="M69.321 14.6153H67.9825V9.84303H68.8595V13.6H68.9979L70.9272 9.84303H72.2656V14.6153H71.3887V10.8676H71.2502L69.321 14.6153ZM70.1333 9.22457C69.7333 9.22457 69.3979 9.11995 69.1272 8.91072C68.8625 8.69534 68.7056 8.37534 68.6564 7.95072H69.3949C69.4256 8.14764 69.5025 8.29841 69.6256 8.40303C69.7549 8.50149 69.9241 8.55072 70.1333 8.55072C70.3425 8.55072 70.5087 8.50149 70.6318 8.40303C70.761 8.29841 70.8379 8.14764 70.8625 7.95072H71.6102C71.5549 8.37534 71.3918 8.69534 71.121 8.91072C70.8564 9.11995 70.5272 9.22457 70.1333 9.22457Z" fill="white"/>
<path d="M75.41 14.6153H74.5056V10.6738H72.8533V9.843H77.0623V10.6738H75.41V14.6153Z" fill="white"/>
<path d="M82.0992 12.1969C82.0992 12.32 82.0961 12.4154 82.09 12.4831H78.1484C78.1977 12.9077 78.3638 13.2462 78.6469 13.4985C78.93 13.7508 79.29 13.8769 79.7269 13.8769C80.0284 13.8769 80.2961 13.8185 80.53 13.7016C80.77 13.5785 80.9515 13.4185 81.0746 13.2216L81.9238 13.36C81.7392 13.7908 81.4408 14.1231 81.0284 14.3569C80.6223 14.5908 80.17 14.7077 79.6715 14.7077C79.1977 14.7077 78.7731 14.6031 78.3977 14.3939C78.0223 14.1785 77.73 13.8831 77.5208 13.5077C77.3115 13.1323 77.2069 12.7077 77.2069 12.2339C77.2069 11.7539 77.3115 11.3262 77.5208 10.9508C77.73 10.5754 78.0192 10.2831 78.3884 10.0739C78.7577 9.85848 79.1792 9.75079 79.6531 9.75079C80.1208 9.75079 80.5392 9.85848 80.9084 10.0739C81.2838 10.2831 81.5761 10.5754 81.7854 10.9508C81.9946 11.32 82.0992 11.7354 82.0992 12.1969ZM79.6531 10.5539C79.29 10.5539 78.9761 10.6616 78.7115 10.8769C78.4531 11.0923 78.2808 11.3816 78.1946 11.7446H81.1115C81.0315 11.3877 80.8592 11.1016 80.5946 10.8862C80.3361 10.6646 80.0223 10.5539 79.6531 10.5539Z" fill="white"/>
<path d="M86.1607 14.6153H84.8223V9.843H85.6992V13.5999H85.8377L87.7669 9.843H89.1053V14.6153H88.2284V10.8676H88.09L86.1607 14.6153Z" fill="white"/>
<path d="M92.7669 12.1785C93.0193 12.2523 93.2285 12.3877 93.3946 12.5846C93.5608 12.7754 93.6439 13.0123 93.6439 13.2954C93.6439 13.56 93.5669 13.8 93.4131 14.0154C93.2593 14.2246 93.0377 14.3939 92.7485 14.5231C92.4654 14.6462 92.1362 14.7077 91.7608 14.7077C91.2562 14.7077 90.8223 14.5908 90.4593 14.3569C90.0962 14.1169 89.8562 13.7969 89.7393 13.3969L90.5793 13.2585C90.7823 13.7016 91.1731 13.9231 91.7516 13.9231C92.0716 13.9231 92.3146 13.8646 92.4808 13.7477C92.6531 13.6246 92.7393 13.4554 92.7393 13.24C92.7393 13.0492 92.6593 12.8954 92.4993 12.7785C92.3454 12.6616 92.0962 12.6031 91.7516 12.6031H91.1239V11.8092H91.7516C92.0469 11.8092 92.2716 11.7539 92.4254 11.6431C92.5854 11.5323 92.6654 11.3846 92.6654 11.2C92.6654 11.0031 92.5793 10.8431 92.4069 10.72C92.2408 10.5969 92.0346 10.5354 91.7885 10.5354C91.5485 10.5354 91.3331 10.5939 91.1423 10.7108C90.9516 10.8277 90.8069 10.9877 90.7085 11.1908L89.8685 11.0431C90.01 10.6308 90.2531 10.3139 90.5977 10.0923C90.9485 9.86463 91.3546 9.75079 91.8162 9.75079C92.1485 9.75079 92.4469 9.80925 92.7116 9.92617C92.9823 10.0431 93.1916 10.2062 93.3393 10.4154C93.4931 10.6246 93.57 10.8585 93.57 11.1169C93.57 11.3816 93.4962 11.6062 93.3485 11.7908C93.2008 11.9754 93.0069 12.1046 92.7669 12.1785Z" fill="white"/>
</g>
<defs>
<clipPath id="clip0_1943_3686">
<rect width="120" height="40" fill="white"/>
</clipPath>
</defs>
</svg>
